<?xml version="1.0" encoding="UTF-8" standalone="no"?>
<svg
   xmlns:dc="http://purl.org/dc/elements/1.1/"
   xmlns:cc="http://creativecommons.org/ns#"
   xmlns:rdf="http://www.w3.org/1999/02/22-rdf-syntax-ns#"
   xmlns:svg="http://www.w3.org/2000/svg"
   xmlns="http://www.w3.org/2000/svg"
   xmlns:sodipodi="http://sodipodi.sourceforge.net/DTD/sodipodi-0.dtd"
   xmlns:inkscape="http://www.inkscape.org/namespaces/inkscape"
   height="99.439354"
   width="460"
   id="svg30"
   version="1.1"
   viewBox="0 0 460.00005 99.439353"
   sodipodi:docname="logo.svg"
   inkscape:version="0.92.4 (f8dce91, 2019-08-02)">
  <sodipodi:namedview
     pagecolor="#ffffff"
     bordercolor="#666666"
     borderopacity="1"
     objecttolerance="10"
     gridtolerance="10"
     guidetolerance="10"
     inkscape:pageopacity="0"
     inkscape:pageshadow="2"
     inkscape:window-width="1920"
     inkscape:window-height="1044"
     id="namedview17"
     showgrid="false"
     inkscape:zoom="1.0021739"
     inkscape:cx="230"
     inkscape:cy="49.719677"
     inkscape:window-x="0"
     inkscape:window-y="18"
     inkscape:window-maximized="0"
     inkscape:current-layer="text59" />
  <metadata
     id="metadata34">
    <rdf:RDF>
      <cc:Work
         rdf:about="">
        <dc:format>image/svg+xml</dc:format>
        <dc:type
           rdf:resource="http://purl.org/dc/dcmitype/StillImage" />
        <dc:title>logo</dc:title>
      </cc:Work>
    </rdf:RDF>
  </metadata>
  <defs
     id="defs4">
    <style
       id="style2">.cls-1,.cls-9{font-size:28.28px;font-family:Futura-Bold, Futura;font-weight:700;}.cls-1{fill:#e6007e;}.cls-2{letter-spacing:-0.13em;}.cls-3{fill:#312783;letter-spacing:-0.04em;}.cls-4,.cls-5,.cls-6,.cls-7,.cls-8,.cls-9{fill:#2d2e83;}.cls-4,.cls-5,.cls-6,.cls-7,.cls-8{font-family:Futura-Medium, Futura;font-weight:500;}.cls-4{letter-spacing:0em;}.cls-5{letter-spacing:0em;}.cls-6{letter-spacing:0em;}.cls-7{letter-spacing:0em;}</style>
  </defs>
  <title
     id="title6">logo</title>
  <g
     transform="translate(-3.4962307,68.656889)"
     data-name="Layer 2"
     id="Layer_2">
    <g
       data-name="Layer 1"
       id="Layer_1-2">
      <text
         transform="scale(1.1048346,-0.90511286)"
         style="font-weight:700;font-size:133.69064331px;font-family:Futura-Bold, Futura;fill:#e6007e;fill-rule:nonzero;stroke-width:0.3814413;stroke-miterlimit:4;stroke-dasharray:none"
         y="63.4515"
         x="3.1644833"
         id="text26-3"
         class="cls-1">/</text>
      <text
         y="9.1916695"
         x="-38.589046"
         style="font-style:normal;font-variant:normal;font-weight:bold;font-stretch:normal;font-size:103.79794312px;font-family:'Glacial Indifference';-inkscape-font-specification:'Glacial Indifference Bold';fill:#000080;stroke-width:3.67036891"
         id="text22"
         class="cls-1">
        <tspan
           style="font-style:normal;font-variant:normal;font-weight:bold;font-stretch:normal;font-family:'Glacial Indifference';-inkscape-font-specification:'Glacial Indifference Bold';letter-spacing:-0.04em;fill:#000080;stroke-width:3.67036891"
           id="tspan10"
           y="9.1916695"
           x="5.6755857"
           class="cls-3">/\</tspan>
      </text>
      <text
         transform="scale(1.1463374,0.87234352)"
         style="font-weight:700;font-size:138.71281433px;font-family:Futura-Bold, Futura;fill:#e6007e;fill-rule:nonzero;stroke-width:0.39577001;stroke-miterlimit:4;stroke-dasharray:none"
         y="22.418224"
         x="39.533928"
         id="text26"
         class="cls-1">/</text>
      <text
         id="text55"
         y="-136.76953"
         x="260.57935"
         style="font-style:normal;font-weight:normal;font-size:146.8147583px;line-height:1.25;font-family:sans-serif;letter-spacing:0px;word-spacing:0px;fill:#000000;fill-opacity:1;stroke:none;stroke-width:3.67036891"
         xml:space="preserve"><tspan
           style="stroke-width:3.67036891"
           y="-6.87288"
           x="260.57935"
           id="tspan53" /></text>
      <g
         aria-label="Norse"
         transform="scale(1.0413529,0.96028926)"
         style="font-style:normal;font-weight:normal;font-size:138.86723328px;line-height:1.25;font-family:sans-serif;letter-spacing:0px;word-spacing:0px;fill:#000000;fill-opacity:1;stroke:none;stroke-width:3.47168183"
         id="text59">
        <path
           d="m 189.32521,31.316503 v -98.590311 h -9.69629 V 2.024196 L 126.94345,-71.40999 v 98.590311 h 9.7641 v -69.298004 z"
           style="font-style:normal;font-variant:normal;font-weight:normal;font-stretch:normal;font-family:'Glacial Indifference';-inkscape-font-specification:'Glacial Indifference';stroke-width:3.47168183"
           id="path19" />
        <path
           d="m 238.34914,28.129608 c 17.2228,0 31.93676,-12.205127 31.93676,-31.8011384 0,-19.1213666 -14.30713,-31.9367516 -31.93676,-31.9367516 -17.83304,0 -31.93675,12.950997 -31.93675,31.9367516 0,19.3247854 14.44274,31.8011384 31.93675,31.8011384 z m 0,-9.153845 c -12.40854,0 -22.24045,-8.611396 -22.24045,-22.6472934 0,-14.3071226 9.96752,-22.7829056 22.24045,-22.7829056 12.34074,0 22.17265,8.611396 22.17265,22.7829056 0,14.1715094 -9.83191,22.6472934 -22.17265,22.6472934 z"
           style="font-style:normal;font-variant:normal;font-weight:normal;font-stretch:normal;font-family:'Glacial Indifference';-inkscape-font-specification:'Glacial Indifference';stroke-width:3.47168183"
           id="path21" />
        <path
           d="m 284.79643,27.180321 h 9.69629 V -5.1632683 c 0,-15.2564097 5.69573,-20.5452987 13.01881,-20.5452987 2.50883,0 5.15327,0.813675 7.93333,2.373219 h 0.67806 v -10.71339 c -2.78005,-0.813675 -5.4245,-1.288319 -7.72991,-1.288319 -6.23818,0 -11.79829,3.390314 -13.90029,9.899715 v -8.475783 h -9.69629 z"
           style="font-style:normal;font-variant:normal;font-weight:normal;font-stretch:normal;font-family:'Glacial Indifference';-inkscape-font-specification:'Glacial Indifference';stroke-width:3.47168183"
           id="path23" />
        <path
           d="m 347.17819,29.01109 c 13.35784,0 24.07123,-6.102564 24.07123,-18.917948 0,-23.732194 -36.95442,-14.5783476 -36.95442,-28.34302 0,-4.678632 4.2718,-8.747008 12.34074,-8.747008 6.37379,0 11.93391,3.186895 12.47636,9.62849 h 9.7641 c -0.67806,-11.662678 -9.7641,-17.968661 -22.24046,-17.968661 -12.34074,0 -22.03703,6.17037 -22.03703,17.968661 0,22.9185178 36.88661,13.290028 36.88661,28.410825 0,5.153277 -4.13619,9.62849 -13.56126,9.62849 -8.74701,0 -15.45983,-3.932763 -15.59544,-13.3578343 h -9.69629 C 323.31039,22.705107 332.73546,29.01109 347.17819,29.01109 Z"
           style="font-style:normal;font-variant:normal;font-weight:normal;font-stretch:normal;font-family:'Glacial Indifference';-inkscape-font-specification:'Glacial Indifference';stroke-width:3.47168183"
           id="path25" />
        <path
           d="m 413.69614,28.129608 c 15.25641,0 27.19031,-8.611395 30.10598,-20.1384606 h -10.849 c -2.1698,6.4415956 -9.28946,10.9846156 -19.3926,10.9846156 -13.0866,0 -20.27407,-7.797721 -22.24045,-18.57891743 h 53.77037 V -3.6715304 c 0,-17.6296296 -14.17151,-31.9367516 -31.93675,-31.9367516 -17.83305,0 -31.93675,14.17151 -31.93675,32.3435892 0,17.5618228 13.0188,31.3943008 32.4792,31.3943008 z M 391.32007,-7.8077126 c 1.55954,-10.8490024 10.98461,-18.6467234 21.83362,-18.6467234 10.78119,0 20.27407,7.797721 21.76581,18.6467234 z"
           style="font-style:normal;font-variant:normal;font-weight:normal;font-stretch:normal;font-family:'Glacial Indifference';-inkscape-font-specification:'Glacial Indifference';stroke-width:3.47168183"
           id="path27" />
      </g>
    </g>
  </g>
</svg>
